<svg width="100" height="46" viewBox="0 0 100 46" fill="none" xmlns="http://www.w3.org/2000/svg">
<g clip-path="url(#clip0_0_1697)">
<path d="M100 0H0V45.2585H100V0Z" fill="#ED1B24"/>
<path d="M86.3571 6.42297H91.9513V32.949H96.6955V39.6377H86.3571V6.42297Z" fill="white"/>
<path d="M97.1843 8.18677C97.1843 9.36087 96.2334 10.3171 95.054 10.3171C93.8745 10.3171 92.9236 9.36618 92.9236 8.18677C92.9236 7.00736 93.8745 6.0564 95.054 6.0564C96.2334 6.0564 97.1843 7.00736 97.1843 8.18677V8.18677Z" stroke="white" stroke-width="1.67"/>
<path d="M94.2252 9.28649V7.04987H95.2133C95.4099 7.04987 95.564 7.07112 95.6702 7.1083C95.7711 7.15081 95.8561 7.21987 95.9199 7.32081C95.9837 7.42175 96.0155 7.53332 96.0155 7.65551C96.0155 7.81489 95.9624 7.9477 95.8615 8.05396C95.7605 8.16552 95.6011 8.22927 95.3886 8.26115C95.4683 8.29834 95.5268 8.33553 95.5693 8.37272C95.6543 8.4524 95.7393 8.55334 95.8136 8.67022L96.2015 9.27586H95.8296L95.5374 8.81367C95.4524 8.68085 95.378 8.5746 95.3249 8.50553C95.2717 8.43647 95.2186 8.38334 95.1761 8.35678C95.1336 8.33021 95.0858 8.30896 95.0433 8.29834C95.0114 8.29303 94.953 8.28771 94.8786 8.28771H94.5386V9.28118H94.2411L94.2252 9.28649ZM94.5227 8.03802H95.1602C95.293 8.03802 95.3993 8.02208 95.4789 7.99552C95.5533 7.96895 95.6118 7.92114 95.6543 7.8627C95.6915 7.79895 95.7127 7.7352 95.7127 7.66082C95.7127 7.55457 95.6755 7.46956 95.5958 7.4005C95.5214 7.33144 95.3993 7.29956 95.2346 7.29956H94.528V8.03802H94.5227Z" fill="white"/>
<path d="M4.112 39.5155V6.42297H11.656L14.3335 20.2943L17.3724 6.42297H24.6719V36.2322L29.4161 6.42297H36.8379L41.4599 36.2322V6.54516H51.3149C51.3149 6.54516 54.7203 7.15081 56.4257 11.9003L55.6978 6.42297H61.6586L64.4584 23.5775L67.3803 6.54516H84.1683V12.7503H79.1797V19.5612H83.9239V26.4942H79.3019V32.8215H84.1683V39.5155H73.3411V7.63957L67.7416 39.5155H61.053L57.5254 18.3446C57.5254 18.3446 56.9197 24.1832 53.6312 26.8607L57.8919 39.5155H52.0533L47.9148 28.4439V39.5155H36.1154L35.5098 36.3544H31.0099L30.0377 39.5155H18.844V27.3495L15.922 39.5155H12.8832L10.2056 27.4717V39.3933L4.12263 39.5155H4.112ZM34.8935 29.9049L33.1881 19.8055L31.7271 29.9049H34.8882H34.8935ZM47.7873 22.2387C51.8036 21.9943 51.4371 17.0058 51.4371 17.0058C50.8314 12.1394 47.7873 12.3838 47.7873 12.3838V22.2387Z" fill="white"/>
</g>
<defs>
<clipPath id="clip0_0_1697">
<rect width="100" height="45.2585" fill="white"/>
</clipPath>
</defs>
</svg>
